<svg width="164" height="26" viewBox="0 0 164 26" fill="none" xmlns="http://www.w3.org/2000/svg">
<path d="M20.3792 23.3616C20.3792 23.6086 20.2683 23.7475 20.0465 23.8247L18.4936 24.3187L16.719 24.9208C14.8017 25.5229 13.5816 25.7236 11.4108 25.7236C4.51815 25.7081 0.366699 20.8297 0.366699 13.049C0.366699 5.26823 4.51815 0.37439 11.4267 0.37439C13.4548 0.37439 14.8175 0.621397 16.7348 1.22348L18.3986 1.77925C18.6521 1.88731 18.763 2.05713 18.6521 2.27326L17.638 4.91316C17.5271 5.16017 17.3528 5.23736 17.1309 5.16017L15.5464 4.63527C14.1203 4.17213 13.0429 4.00232 11.4267 4.00232C7.08507 4.00232 4.53399 7.38324 4.53399 13.049C4.53399 18.7147 7.10092 22.0648 11.4267 22.0648C12.9478 22.0648 14.1362 21.9258 15.4355 21.509L16.4496 21.1848V15.8741H12.0763C11.7911 15.8741 11.6485 15.7043 11.7119 15.4573L12.5041 12.6476C12.5675 12.416 12.726 12.308 12.9795 12.308H19.9831C20.2366 12.308 20.3792 12.4469 20.3792 12.6939V23.3616Z" fill="black"/>
<path d="M33.3904 25.2727C32.1485 25.5883 30.9672 25.7236 29.8616 25.7236C24.6516 25.7236 21.7134 22.372 21.7134 17.0515C21.7134 11.7009 24.6819 8.37939 29.7253 8.37939C33.8599 8.37939 36.3892 10.4385 36.3892 13.8201C36.3892 16.4653 34.7687 17.9683 31.3155 18.4793L25.8935 19.3059C26.2721 21.1245 27.6504 22.2517 29.8313 22.2517C30.8006 22.2517 31.8305 22.1465 32.5574 21.906L34.072 21.5303C34.3143 21.4702 34.4809 21.5604 34.5566 21.8008L35.2533 24.3709C35.329 24.6114 35.223 24.7767 34.9807 24.8518L33.3904 25.2727ZM30.74 15.5335C31.9516 15.3231 32.6029 14.782 32.6029 13.8953C32.6029 12.5276 31.5276 11.8061 29.6647 11.8061C27.3929 11.8061 25.8329 13.2039 25.5603 16.3601L30.74 15.5335Z" fill="black"/>
<path d="M48.0665 25.2727C46.8245 25.5883 45.6432 25.7236 44.5376 25.7236C39.3276 25.7236 36.3894 22.372 36.3894 17.0515C36.3894 11.7009 39.3579 8.37939 44.4013 8.37939C48.536 8.37939 51.0652 10.4385 51.0652 13.8201C51.0652 16.4653 49.4447 17.9683 45.9916 18.4793L40.5695 19.3059C40.9482 21.1245 42.3264 22.2517 44.5073 22.2517C45.4766 22.2517 46.5065 22.1465 47.2335 21.906L48.748 21.5303C48.9903 21.4702 49.1569 21.5604 49.2327 21.8008L49.9293 24.3709C50.0051 24.6114 49.899 24.7767 49.6567 24.8518L48.0665 25.2727ZM45.4009 15.5335C46.6125 15.3231 47.2638 14.782 47.2638 13.8953C47.2638 12.5276 46.1884 11.8061 44.3256 11.8061C42.0538 11.8061 40.4938 13.2039 40.2212 16.3601L45.4009 15.5335Z" fill="black"/>
<path d="M67.004 25.2584C67.1691 25.5065 67.0341 25.7236 66.7339 25.7236H63.3416C63.1315 25.7236 62.9964 25.646 62.8613 25.4755L60.5048 21.553C59.5441 20.0646 58.5835 18.8242 56.7073 18.8242H56.1969V25.3205C56.1969 25.5685 56.0618 25.7081 55.8217 25.7081H52.7747C52.5345 25.7081 52.3994 25.5685 52.3994 25.3205V0.761992C52.3994 0.513926 52.5345 0.37439 52.7747 0.37439H55.8217C56.0618 0.37439 56.1969 0.513926 56.1969 0.761992V15.2893H56.7073C58.3884 15.2893 59.379 13.7699 60.2946 12.3901L62.5461 8.82411C62.6812 8.65357 62.8163 8.57605 63.0264 8.57605H66.3736C66.6888 8.57605 66.7789 8.79311 66.6438 9.04117L63.6568 14.049C62.7712 15.3978 61.7806 16.3746 60.6849 16.8087C60.5498 16.8862 60.5198 17.0258 60.6849 17.0878C61.8857 17.6149 63.0114 18.6072 63.867 19.956L67.004 25.2584Z" fill="black"/>
<path d="M78.4083 25.2723C77.2628 25.5431 76.0331 25.7236 74.8371 25.7236C68.958 25.7236 65.7405 22.3691 65.7405 17.0139C65.7405 11.7038 68.9243 8.37939 74.955 8.37939C75.9489 8.37939 77.0607 8.48469 78.2567 8.78555L79.9076 9.1917C80.1771 9.25187 80.295 9.43238 80.2108 9.67306L79.3348 12.2454C79.2506 12.456 79.0653 12.5462 78.8295 12.486L77.5155 12.1701C76.5553 11.8994 75.6288 11.7941 74.9381 11.7941C71.5185 11.7941 69.9519 13.7496 69.9519 16.9687C69.9519 20.2932 71.6027 22.2487 74.8708 22.2487C75.6794 22.2487 76.7575 22.1133 77.7177 21.8726L78.9811 21.5267C79.2506 21.4665 79.4359 21.5568 79.5201 21.7673L80.3961 24.3396C80.4635 24.5803 80.3624 24.7458 80.0929 24.821L78.4083 25.2723Z" fill="black"/>
<path d="M109.438 25.2727C108.196 25.5883 107.015 25.7236 105.909 25.7236C100.699 25.7236 97.761 22.372 97.761 17.0515C97.761 11.7009 100.729 8.37939 105.773 8.37939C109.908 8.37939 112.437 10.4385 112.437 13.8201C112.437 16.4653 110.816 17.9683 107.363 18.4793L101.941 19.3059C102.32 21.1245 103.698 22.2517 105.879 22.2517C106.848 22.2517 107.878 22.1465 108.605 21.906L110.12 21.5303C110.362 21.4702 110.529 21.5604 110.604 21.8008L111.301 24.3709C111.377 24.6114 111.271 24.7767 111.028 24.8518L109.438 25.2727ZM106.772 15.5335C107.984 15.3231 108.635 14.782 108.635 13.8953C108.635 12.5276 107.56 11.8061 105.697 11.8061C103.425 11.8061 101.865 13.2039 101.593 16.3601L106.772 15.5335Z" fill="black"/>
<path d="M116.885 17.9766C114.041 17.2546 112.701 15.7804 112.701 13.3134C112.701 10.2296 115.004 8.37939 118.977 8.37939C120.527 8.37939 122.092 8.62008 123.235 8.92093L124.74 9.297C124.981 9.35717 125.086 9.53768 125.011 9.77836L124.289 12.3507C124.213 12.5913 124.048 12.6966 123.807 12.6214L122.302 12.2153C121.384 11.9445 120 11.8091 118.977 11.8091C117.397 11.8091 116.479 12.3958 116.479 13.3134C116.479 14.0956 116.96 14.577 118.029 14.8929L121.46 15.7804C124.439 16.5325 125.778 18.0819 125.778 20.5489C125.778 23.768 123.371 25.7236 119.323 25.7236C117.532 25.7236 115.756 25.4829 114.071 25.0015L112.732 24.6255C112.491 24.5653 112.385 24.3848 112.461 24.1441L113.243 21.5718C113.318 21.3612 113.484 21.2559 113.695 21.3311L114.929 21.6771C116.238 22.0532 118.044 22.2638 119.323 22.2638C121.008 22.2638 121.971 21.6169 121.971 20.5489C121.971 19.7215 121.49 19.2101 120.361 18.8641L116.885 17.9766Z" fill="black"/>
<path d="M136.053 8.49804C136.308 8.49804 136.452 8.63512 136.452 8.87881V11.5594C136.452 11.8031 136.308 11.9401 136.053 11.9401H131.991V20.3778C131.991 21.5658 132.533 22.2207 133.409 22.2207C133.744 22.2207 134.062 22.1902 134.349 22.0836C134.604 21.977 134.779 22.0075 134.89 22.2511L136.053 24.6119C136.165 24.8251 136.085 24.9926 135.878 25.1297C135.225 25.48 134.285 25.7237 133.409 25.7237C129.952 25.7237 127.961 23.7437 127.961 20.3778V11.9249H126.177C125.922 11.9249 125.778 11.7878 125.778 11.5441V8.87881C125.778 8.63512 125.922 8.49804 126.177 8.49804H127.961V4.50767C127.961 4.29444 128.072 4.15737 128.295 4.09644L131.529 3.06077C131.816 2.99985 132.007 3.09123 132.007 3.38061V8.51327H136.053V8.49804Z" fill="black"/>
<path d="M148.129 25.2727C146.887 25.5883 145.705 25.7236 144.6 25.7236C139.39 25.7236 136.452 22.372 136.452 17.0515C136.452 11.7009 139.42 8.37939 144.464 8.37939C148.598 8.37939 151.127 10.4385 151.127 13.8201C151.127 16.4653 149.507 17.9683 146.054 18.4793L140.632 19.3059C141.01 21.1245 142.389 22.2517 144.57 22.2517C145.539 22.2517 146.569 22.1465 147.296 21.906L148.81 21.5303C149.053 21.4702 149.219 21.5604 149.295 21.8008L149.992 24.3709C150.067 24.6114 149.961 24.7767 149.719 24.8518L148.129 25.2727ZM145.463 15.5335C146.675 15.3231 147.326 14.782 147.326 13.8953C147.326 12.5276 146.251 11.8061 144.388 11.8061C142.116 11.8061 140.556 13.2039 140.283 16.3601L145.463 15.5335Z" fill="black"/>
<path d="M163.135 11.4881C163.135 11.7343 162.984 11.8729 162.715 11.8729C158.553 12.0421 156.707 14.7199 156.707 21.1682V25.3388C156.707 25.5851 156.556 25.7236 156.288 25.7236H152.881C152.612 25.7236 152.461 25.5851 152.461 25.3388V9.10271C152.461 8.85647 152.612 8.71797 152.881 8.71797H154.794C155.063 8.71797 155.214 8.8257 155.298 9.04115L155.902 11.0418C156.137 11.4266 156.321 11.5035 156.674 11.1495C158.201 9.31816 159.929 8.44095 162.715 8.37939C162.984 8.37939 163.135 8.5179 163.135 8.76414V11.4881Z" fill="black"/>
<path d="M90.124 8.23977C88.4463 8.23977 87.1163 8.78275 86.028 9.7601C85.8467 9.91524 85.5746 9.79113 85.5746 9.54291V0.762229C85.5746 0.514012 85.4386 0.37439 85.1968 0.37439H82.1286C81.917 0.37439 81.7507 0.545039 81.7507 0.762229V25.3357C81.7507 25.5529 81.917 25.7236 82.1286 25.7236H85.1968C85.4084 25.7236 85.5746 25.5529 85.5746 25.3357V17.098C85.6048 14.0263 86.814 11.7614 89.6101 11.7614C91.4691 11.7614 92.6027 13.0645 92.6027 15.3295V25.3357C92.6027 25.5529 92.7689 25.7236 92.9805 25.7236H96.0487C96.2603 25.7236 96.4266 25.5529 96.4266 25.3357V14.9261C96.4266 10.753 94.0536 8.23977 90.124 8.23977Z" fill="black"/>
</svg>
