<?xml version="1.0" encoding="UTF-8" standalone="no"?>
<!-- Created with Inkscape (http://www.inkscape.org/) -->

<svg
   version="1.1"
   id="svg2"
   width="654.66669"
   height="162.66667"
   viewBox="0 0 654.66669 162.66667"
   sodipodi:docname="Red_sift_logo.eps"
   xmlns:inkscape="http://www.inkscape.org/namespaces/inkscape"
   xmlns:sodipodi="http://sodipodi.sourceforge.net/DTD/sodipodi-0.dtd"
   xmlns="http://www.w3.org/2000/svg"
   xmlns:svg="http://www.w3.org/2000/svg">
  <defs
     id="defs6" />
  <sodipodi:namedview
     id="namedview4"
     pagecolor="#ffffff"
     bordercolor="#000000"
     borderopacity="0.25"
     inkscape:showpageshadow="2"
     inkscape:pageopacity="0.0"
     inkscape:pagecheckerboard="0"
     inkscape:deskcolor="#d1d1d1" />
  <g
     id="g8"
     inkscape:groupmode="layer"
     inkscape:label="ink_ext_XXXXXX"
     transform="matrix(1.3333333,0,0,-1.3333333,0,162.66667)">
    <g
       id="g10"
       transform="scale(0.1)">
      <path
         d="m 707.004,610 h -94.008 l 220,-360 h 90 L 869,340 707.004,610"
         style="fill:#ea1f24;fill-opacity:1;fill-rule:nonzero;stroke:none"
         id="path12" />
      <path
         d="M 707.004,610 869,880 l 53.996,90 v 0 0 H 815 v 0 0 0 H 502.996 419 V 862.004 250 h 83.996 v 650 h 290 l -180,-290 h 94.008"
         style="fill:#ea1f24;fill-opacity:1;fill-rule:nonzero;stroke:none"
         id="path14" />
      <path
         d="m 1523,320 46,-70 h -461 v 720 h 461 l -46,-70 -328,-2 V 651 h 317 l -48,-71 -269,-0.996 v -257 L 1523,320"
         style="fill:#ea1f24;fill-opacity:1;fill-rule:nonzero;stroke:none"
         id="path16" />
      <path
         d="M 2216,425 V 795 L 2092,898 H 1835 V 322.004 h 257 z M 1749,250 v 720 h 381 L 2303,826 V 394.004 L 2130,250 h -381"
         style="fill:#ea1f24;fill-opacity:1;fill-rule:nonzero;stroke:none"
         id="path18" />
      <path
         d="M 3012,579.004 H 2766 L 2667,664 V 877.004 L 2766,970 h 274 l 99,-92.996 V 836 h -87 v 20 l -50,42 h -198 l -50,-42 V 694 l 50,-41.996 h 246 l 99,-93 V 342.996 L 3050,250 h -294 l -99,92.996 v 41.008 h 86 v -20 l 50,-42 h 218 l 50,42 v 173 l -49,42"
         style="fill:#ea1f24;fill-opacity:1;fill-rule:nonzero;stroke:none"
         id="path20" />
      <path
         d="m 3328,970 h 86 V 250 h -86 v 720"
         style="fill:#ea1f24;fill-opacity:1;fill-rule:nonzero;stroke:none"
         id="path22" />
      <path
         d="m 3707,250 h -86 v 720 h 420 l -47,-70 -286,-2 V 651 l 156,-1 -50,-70 -106,-0.996 V 250 h -1"
         style="fill:#ea1f24;fill-opacity:1;fill-rule:nonzero;stroke:none"
         id="path24" />
      <path
         d="m 4101,970 h 543 l -41,-70 -188,-2 V 250 h -86 v 648 h -228 v 72"
         style="fill:#ea1f24;fill-opacity:1;fill-rule:nonzero;stroke:none"
         id="path26" />
    </g>
  </g>
</svg>
